<svg xmlns="http://www.w3.org/2000/svg" viewBox="0 0 288 288"><rect width="288" height="288" fill="#f3eee4"/><g transform="translate(0,66)"><g transform="translate(-27.5,195.641338) scale(0.1,-0.1)"><path d="M1545 1950 c-251 -39 -419 -101 -603 -224 -208 -138 -340 -279 -476
-509 -111 -189 -186 -449 -189 -662 l-2 -110 30 0 30 0 7 95 c48 611 407 1086
965 1281 115 39 246 59 400 59 225 0 356 -28 569 -123 122 -54 156 -75 282
-176 301 -243 487 -595 523 -994 14 -153 13 -149 46 -145 l28 3 -1 115 c-2
232 -77 472 -222 710 -206 337 -566 591 -937 661 -124 23 -356 33 -450 19z" fill="#17352c"/><path d="M1670 1638 c0 -94 6 -85 -167 -280 -46 -51 -83 -98 -83 -104 0 -6 12
-20 26 -29 30 -20 19 -30 157 134 l62 74 3 -79 3 -79 -52 -45 c-93 -79 -292
-265 -295 -275 -2 -6 8 -18 22 -28 l25 -18 77 68 c42 37 109 97 147 133 l70
65 3 -59 c4 -68 4 -68 -113 -166 -45 -37 -117 -101 -160 -143 -80 -75 -80 -75
-61 -96 11 -11 23 -21 29 -21 10 0 88 65 220 183 l87 79 0 -65 0 -66 -66 -58
c-74 -64 -225 -198 -288 -254 -41 -37 -41 -37 -22 -58 11 -12 24 -21 30 -21
10 0 113 86 285 238 l60 54 3 -164 3 -163 40 0 40 0 1 95 c1 52 2 125 3 162
l1 68 151 -133 c180 -158 192 -166 213 -148 37 31 28 42 -272 305 l-102 89 0
59 c0 32 2 58 5 58 3 0 71 -59 151 -130 80 -72 151 -130 158 -130 16 0 49 36
45 48 -4 9 -55 55 -286 258 l-63 55 0 61 0 60 34 -29 c19 -15 85 -74 147 -130
63 -57 119 -103 126 -103 6 0 19 10 27 22 15 22 14 25 -39 78 -30 30 -109 102
-174 160 l-120 105 0 80 c0 77 0 79 17 60 113 -135 177 -205 187 -205 18 0 48
37 42 52 -4 11 -119 145 -218 255 -27 30 -29 38 -29 118 l0 85 -45 0 -45 0 0
-82z" fill="#2b5145"/></g></g></svg>